<svg xmlns="http://www.w3.org/2000/svg" xmlns:xlink="http://www.w3.org/1999/xlink" version="1.2" width="55.66mm" height="20.71mm" viewBox="7.6043 -0.0000 28.2147 10.5000">
<style type="text/css">
<![CDATA[
tspan { white-space: pre; }
]]>
</style>
<g transform="translate(0.0000, 8.0000)">
<rect x="9.2606" y="-0.0964" width="2.0620" height="0.1928" ry="0.0964" fill="currentColor"/>
</g>
<g transform="translate(7.6043, 7.0000)">
<line stroke-linejoin="round" stroke-linecap="round" stroke-width="0.0928" stroke="currentColor" x1="0.0464" y1="0" x2="28.2147" y2="0"/>
</g>
<g transform="translate(7.6043, 6.0000)">
<line stroke-linejoin="round" stroke-linecap="round" stroke-width="0.0928" stroke="currentColor" x1="0.0464" y1="0" x2="28.2147" y2="0"/>
</g>
<g transform="translate(7.6043, 5.0000)">
<line stroke-linejoin="round" stroke-linecap="round" stroke-width="0.0928" stroke="currentColor" x1="0.0464" y1="0" x2="28.2147" y2="0"/>
</g>
<g transform="translate(7.6043, 4.0000)">
<line stroke-linejoin="round" stroke-linecap="round" stroke-width="0.0928" stroke="currentColor" x1="0.0464" y1="0" x2="28.2147" y2="0"/>
</g>
<g transform="translate(7.6043, 3.0000)">
<line stroke-linejoin="round" stroke-linecap="round" stroke-width="0.0928" stroke="currentColor" x1="0.0464" y1="0" x2="28.2147" y2="0"/>
</g>
<g color="rgb(73.3333%, 18.4314%, 23.9216%)">
<a style="color:inherit;" xlink:href="textedit:///Users/hex/Desktop/svglily/167.ly:29:26:27">
<g transform="translate(22.7974, 4.5000)">
<path transform="scale(0.0040, -0.0040)" d="M315 66c0 23 -18 42 -42 42c-40 0 -206 -113 -234 -146c-7 -8 -10 -18 -10 -28c0 -23 18 -42 42 -42c40 0 206 113 234 146c7 8 10 18 10 28zM263 135c39 0 81 -13 81 -69c0 -27 -18 -112 -76 -151c-22 -15 -86 -50 -188 -50c-39 0 -80 13 -80 69c0 27 17 112 75 151
c22 15 86 50 188 50z" fill="currentColor"/>
</g>
</a>
</g>
<g color="rgb(73.3333%, 18.4314%, 23.9216%)">
<a style="color:inherit;" xlink:href="textedit:///Users/hex/Desktop/svglily/167.ly:29:15:16">
<g transform="translate(9.6043, 5.5000)">
<path transform="scale(0.0040, -0.0040)" d="M315 66c0 23 -18 42 -42 42c-40 0 -206 -113 -234 -146c-7 -8 -10 -18 -10 -28c0 -23 18 -42 42 -42c40 0 206 113 234 146c7 8 10 18 10 28zM263 135c39 0 81 -13 81 -69c0 -27 -18 -112 -76 -151c-22 -15 -86 -50 -188 -50c-39 0 -80 13 -80 69c0 27 17 112 75 151
c22 15 86 50 188 50z" fill="currentColor"/>
</g>
</a>
</g>
<g color="rgb(23.5294%, 36.8627%, 76.8627%)">
<a style="color:inherit;" xlink:href="textedit:///Users/hex/Desktop/svglily/167.ly:29:56:57">
<g transform="translate(9.6043, 8.0000)">
<path transform="scale(0.0040, -0.0040)" d="M315 66c0 23 -18 42 -42 42c-40 0 -206 -113 -234 -146c-7 -8 -10 -18 -10 -28c0 -23 18 -42 42 -42c40 0 206 113 234 146c7 8 10 18 10 28zM263 135c39 0 81 -13 81 -69c0 -27 -18 -112 -76 -151c-22 -15 -86 -50 -188 -50c-39 0 -80 13 -80 69c0 27 17 112 75 151
c22 15 86 50 188 50z" fill="currentColor"/>
</g>
</a>
</g>
<g color="rgb(73.3333%, 18.4314%, 23.9216%)">
<g transform="translate(10.9186, 5.0000)">
<rect x="-0.0603" y="-3.0000" width="0.1207" height="3.2359" ry="0.0356" fill="currentColor"/>
</g>
</g>
<g color="rgb(23.5294%, 36.8627%, 76.8627%)">
<g transform="translate(9.6646, 5.0000)">
<rect x="-0.0603" y="3.2641" width="0.1207" height="2.2359" ry="0.0356" fill="currentColor"/>
</g>
</g>
<g color="rgb(73.3333%, 18.4314%, 23.9216%)">
<a style="color:inherit;" xlink:href="textedit:///Users/hex/Desktop/svglily/167.ly:29:19:20">
<g transform="translate(14.0020, 6.0000)">
<path transform="scale(0.0040, -0.0040)" d="M315 66c0 23 -18 42 -42 42c-40 0 -206 -113 -234 -146c-7 -8 -10 -18 -10 -28c0 -23 18 -42 42 -42c40 0 206 113 234 146c7 8 10 18 10 28zM263 135c39 0 81 -13 81 -69c0 -27 -18 -112 -76 -151c-22 -15 -86 -50 -188 -50c-39 0 -80 13 -80 69c0 27 17 112 75 151
c22 15 86 50 188 50z" fill="currentColor"/>
</g>
</a>
</g>
<g color="rgb(23.5294%, 36.8627%, 76.8627%)">
<a style="color:inherit;" xlink:href="textedit:///Users/hex/Desktop/svglily/167.ly:29:60:61">
<g transform="translate(14.0020, 6.0000)">
<path transform="scale(0.0040, -0.0040)" d="M315 66c0 23 -18 42 -42 42c-40 0 -206 -113 -234 -146c-7 -8 -10 -18 -10 -28c0 -23 18 -42 42 -42c40 0 206 113 234 146c7 8 10 18 10 28zM263 135c39 0 81 -13 81 -69c0 -27 -18 -112 -76 -151c-22 -15 -86 -50 -188 -50c-39 0 -80 13 -80 69c0 27 17 112 75 151
c22 15 86 50 188 50z" fill="currentColor"/>
</g>
</a>
</g>
<g color="rgb(73.3333%, 18.4314%, 23.9216%)">
<g transform="translate(15.3163, 5.0000)">
<rect x="-0.0603" y="-2.5000" width="0.1207" height="3.2359" ry="0.0356" fill="currentColor"/>
</g>
</g>
<g color="rgb(23.5294%, 36.8627%, 76.8627%)">
<g transform="translate(14.0623, 5.0000)">
<rect x="-0.0603" y="1.2641" width="0.1207" height="2.7359" ry="0.0356" fill="currentColor"/>
</g>
</g>
<g color="rgb(73.3333%, 18.4314%, 23.9216%)">
<a style="color:inherit;" xlink:href="textedit:///Users/hex/Desktop/svglily/167.ly:29:22:23">
<g transform="translate(18.3997, 4.0000)">
<path transform="scale(0.0040, -0.0040)" d="M315 66c0 23 -18 42 -42 42c-40 0 -206 -113 -234 -146c-7 -8 -10 -18 -10 -28c0 -23 18 -42 42 -42c40 0 206 113 234 146c7 8 10 18 10 28zM263 135c39 0 81 -13 81 -69c0 -27 -18 -112 -76 -151c-22 -15 -86 -50 -188 -50c-39 0 -80 13 -80 69c0 27 17 112 75 151
c22 15 86 50 188 50z" fill="currentColor"/>
</g>
</a>
</g>
<g color="rgb(23.5294%, 36.8627%, 76.8627%)">
<a style="color:inherit;" xlink:href="textedit:///Users/hex/Desktop/svglily/167.ly:29:63:64">
<g transform="translate(18.3997, 6.5000)">
<path transform="scale(0.0040, -0.0040)" d="M315 66c0 23 -18 42 -42 42c-40 0 -206 -113 -234 -146c-7 -8 -10 -18 -10 -28c0 -23 18 -42 42 -42c40 0 206 113 234 146c7 8 10 18 10 28zM263 135c39 0 81 -13 81 -69c0 -27 -18 -112 -76 -151c-22 -15 -86 -50 -188 -50c-39 0 -80 13 -80 69c0 27 17 112 75 151
c22 15 86 50 188 50z" fill="currentColor"/>
</g>
</a>
</g>
<g color="rgb(73.3333%, 18.4314%, 23.9216%)">
<g transform="translate(19.7140, 5.0000)">
<rect x="-0.0603" y="-4.0000" width="0.1207" height="2.7359" ry="0.0356" fill="currentColor"/>
</g>
</g>
<g color="rgb(23.5294%, 36.8627%, 76.8627%)">
<g transform="translate(18.4600, 5.0000)">
<rect x="-0.0603" y="1.7641" width="0.1207" height="2.5692" ry="0.0356" fill="currentColor"/>
</g>
</g>
<g color="rgb(23.5294%, 36.8627%, 76.8627%)">
<a style="color:inherit;" xlink:href="textedit:///Users/hex/Desktop/svglily/167.ly:29:66:67">
<g transform="translate(22.7974, 4.5000)">
<path transform="scale(0.0040, -0.0040)" d="M315 66c0 23 -18 42 -42 42c-40 0 -206 -113 -234 -146c-7 -8 -10 -18 -10 -28c0 -23 18 -42 42 -42c40 0 206 113 234 146c7 8 10 18 10 28zM263 135c39 0 81 -13 81 -69c0 -27 -18 -112 -76 -151c-22 -15 -86 -50 -188 -50c-39 0 -80 13 -80 69c0 27 17 112 75 151
c22 15 86 50 188 50z" fill="currentColor"/>
</g>
</a>
</g>
<g color="rgb(73.3333%, 18.4314%, 23.9216%)">
<g transform="translate(24.1117, 5.0000)">
<rect x="-0.0603" y="-3.6667" width="0.1207" height="2.9025" ry="0.0356" fill="currentColor"/>
</g>
</g>
<g color="rgb(23.5294%, 36.8627%, 76.8627%)">
<g transform="translate(22.8577, 5.0000)">
<rect x="-0.0603" y="-0.2359" width="0.1207" height="3.2359" ry="0.0356" fill="currentColor"/>
</g>
</g>
<g color="rgb(73.3333%, 18.4314%, 23.9216%)">
<a style="color:inherit;" xlink:href="textedit:///Users/hex/Desktop/svglily/167.ly:29:30:31">
<g transform="translate(27.1950, 2.5000)">
<path transform="scale(0.0040, -0.0040)" d="M315 66c0 23 -18 42 -42 42c-40 0 -206 -113 -234 -146c-7 -8 -10 -18 -10 -28c0 -23 18 -42 42 -42c40 0 206 113 234 146c7 8 10 18 10 28zM263 135c39 0 81 -13 81 -69c0 -27 -18 -112 -76 -151c-22 -15 -86 -50 -188 -50c-39 0 -80 13 -80 69c0 27 17 112 75 151
c22 15 86 50 188 50z" fill="currentColor"/>
</g>
</a>
</g>
<g color="rgb(23.5294%, 36.8627%, 76.8627%)">
<a style="color:inherit;" xlink:href="textedit:///Users/hex/Desktop/svglily/167.ly:29:70:71">
<g transform="translate(27.1950, 5.0000)">
<path transform="scale(0.0040, -0.0040)" d="M315 66c0 23 -18 42 -42 42c-40 0 -206 -113 -234 -146c-7 -8 -10 -18 -10 -28c0 -23 18 -42 42 -42c40 0 206 113 234 146c7 8 10 18 10 28zM263 135c39 0 81 -13 81 -69c0 -27 -18 -112 -76 -151c-22 -15 -86 -50 -188 -50c-39 0 -80 13 -80 69c0 27 17 112 75 151
c22 15 86 50 188 50z" fill="currentColor"/>
</g>
</a>
</g>
<g color="rgb(73.3333%, 18.4314%, 23.9216%)">
<g transform="translate(28.5094, 5.0000)">
<rect x="-0.0603" y="-5.0000" width="0.1207" height="2.2359" ry="0.0356" fill="currentColor"/>
</g>
</g>
<g color="rgb(23.5294%, 36.8627%, 76.8627%)">
<g transform="translate(27.2554, 5.0000)">
<rect x="-0.0603" y="0.2641" width="0.1207" height="3.0692" ry="0.0356" fill="currentColor"/>
</g>
</g>
<g color="rgb(73.3333%, 18.4314%, 23.9216%)">
<a style="color:inherit;" xlink:href="textedit:///Users/hex/Desktop/svglily/167.ly:29:34:35">
<g transform="translate(31.5927, 3.0000)">
<path transform="scale(0.0040, -0.0040)" d="M315 66c0 23 -18 42 -42 42c-40 0 -206 -113 -234 -146c-7 -8 -10 -18 -10 -28c0 -23 18 -42 42 -42c40 0 206 113 234 146c7 8 10 18 10 28zM263 135c39 0 81 -13 81 -69c0 -27 -18 -112 -76 -151c-22 -15 -86 -50 -188 -50c-39 0 -80 13 -80 69c0 27 17 112 75 151
c22 15 86 50 188 50z" fill="currentColor"/>
</g>
</a>
</g>
<g color="rgb(23.5294%, 36.8627%, 76.8627%)">
<a style="color:inherit;" xlink:href="textedit:///Users/hex/Desktop/svglily/167.ly:29:73:74">
<g transform="translate(31.5927, 3.0000)">
<path transform="scale(0.0040, -0.0040)" d="M315 66c0 23 -18 42 -42 42c-40 0 -206 -113 -234 -146c-7 -8 -10 -18 -10 -28c0 -23 18 -42 42 -42c40 0 206 113 234 146c7 8 10 18 10 28zM263 135c39 0 81 -13 81 -69c0 -27 -18 -112 -76 -151c-22 -15 -86 -50 -188 -50c-39 0 -80 13 -80 69c0 27 17 112 75 151
c22 15 86 50 188 50z" fill="currentColor"/>
</g>
</a>
</g>
<g color="rgb(73.3333%, 18.4314%, 23.9216%)">
<g transform="translate(32.9070, 5.0000)">
<rect x="-0.0603" y="-4.6667" width="0.1207" height="2.4025" ry="0.0356" fill="currentColor"/>
</g>
</g>
<g color="rgb(23.5294%, 36.8627%, 76.8627%)">
<g transform="translate(31.6531, 5.0000)">
<rect x="-0.0603" y="-1.7359" width="0.1207" height="3.2359" ry="0.0356" fill="currentColor"/>
</g>
</g>
</svg>
