<svg xmlns="http://www.w3.org/2000/svg" xmlns:xlink="http://www.w3.org/1999/xlink" version="1.2" width="54.57mm" height="26.63mm" viewBox="7.6043 -0.0000 27.6658 13.5000">
<style type="text/css">
<![CDATA[
tspan { white-space: pre; }
]]>
</style>
<g transform="translate(0.0000, 9.5000)">
<rect x="30.4665" y="-0.0964" width="2.5293" height="0.1928" ry="0.0964" fill="currentColor"/>
</g>
<g transform="translate(0.0000, 10.5000)">
<rect x="30.4665" y="-0.0964" width="2.5293" height="0.1928" ry="0.0964" fill="currentColor"/>
</g>
<g transform="translate(0.0000, 11.5000)">
<rect x="30.9338" y="-0.0964" width="2.0620" height="0.1928" ry="0.0964" fill="currentColor"/>
</g>
<g transform="translate(0.0000, 9.5000)">
<rect x="26.3188" y="-0.0964" width="2.0620" height="0.1928" ry="0.0964" fill="currentColor"/>
</g>
<g transform="translate(0.0000, 10.5000)">
<rect x="26.3188" y="-0.0964" width="2.0620" height="0.1928" ry="0.0964" fill="currentColor"/>
</g>
<g transform="translate(0.0000, 2.5000)">
<rect x="9.2606" y="-0.0964" width="2.0620" height="0.1928" ry="0.0964" fill="currentColor"/>
</g>
<g transform="translate(0.0000, 3.5000)">
<rect x="9.2606" y="-0.0964" width="2.0620" height="0.1928" ry="0.0964" fill="currentColor"/>
</g>
<g transform="translate(7.6043, 8.5000)">
<line stroke-linejoin="round" stroke-linecap="round" stroke-width="0.0928" stroke="currentColor" x1="0.0464" y1="0" x2="27.6658" y2="0"/>
</g>
<g transform="translate(7.6043, 7.5000)">
<line stroke-linejoin="round" stroke-linecap="round" stroke-width="0.0928" stroke="currentColor" x1="0.0464" y1="0" x2="27.6658" y2="0"/>
</g>
<g transform="translate(7.6043, 6.5000)">
<line stroke-linejoin="round" stroke-linecap="round" stroke-width="0.0928" stroke="currentColor" x1="0.0464" y1="0" x2="27.6658" y2="0"/>
</g>
<g transform="translate(7.6043, 5.5000)">
<line stroke-linejoin="round" stroke-linecap="round" stroke-width="0.0928" stroke="currentColor" x1="0.0464" y1="0" x2="27.6658" y2="0"/>
</g>
<g transform="translate(7.6043, 4.5000)">
<line stroke-linejoin="round" stroke-linecap="round" stroke-width="0.0928" stroke="currentColor" x1="0.0464" y1="0" x2="27.6658" y2="0"/>
</g>
<g color="rgb(73.3333%, 18.4314%, 23.9216%)">
<a style="color:inherit;" xlink:href="textedit:///Users/hex/Desktop/svglily/39.ly:29:29:30">
<g transform="translate(22.7484, 9.0000)">
<path transform="scale(0.0040, -0.0040)" d="M315 66c0 23 -18 42 -42 42c-40 0 -206 -113 -234 -146c-7 -8 -10 -18 -10 -28c0 -23 18 -42 42 -42c40 0 206 113 234 146c7 8 10 18 10 28zM263 135c39 0 81 -13 81 -69c0 -27 -18 -112 -76 -151c-22 -15 -86 -50 -188 -50c-39 0 -80 13 -80 69c0 27 17 112 75 151
c22 15 86 50 188 50z" fill="currentColor"/>
</g>
</a>
</g>
<g color="rgb(73.3333%, 18.4314%, 23.9216%)">
<a style="color:inherit;" xlink:href="textedit:///Users/hex/Desktop/svglily/39.ly:29:15:16">
<g transform="translate(9.6043, 2.5000)">
<path transform="scale(0.0040, -0.0040)" d="M315 66c0 23 -18 42 -42 42c-40 0 -206 -113 -234 -146c-7 -8 -10 -18 -10 -28c0 -23 18 -42 42 -42c40 0 206 113 234 146c7 8 10 18 10 28zM263 135c39 0 81 -13 81 -69c0 -27 -18 -112 -76 -151c-22 -15 -86 -50 -188 -50c-39 0 -80 13 -80 69c0 27 17 112 75 151
c22 15 86 50 188 50z" fill="currentColor"/>
</g>
</a>
</g>
<g color="rgb(23.5294%, 36.8627%, 76.8627%)">
<a style="color:inherit;" xlink:href="textedit:///Users/hex/Desktop/svglily/39.ly:29:55:56">
<g transform="translate(9.6043, 5.0000)">
<path transform="scale(0.0040, -0.0040)" d="M315 66c0 23 -18 42 -42 42c-40 0 -206 -113 -234 -146c-7 -8 -10 -18 -10 -28c0 -23 18 -42 42 -42c40 0 206 113 234 146c7 8 10 18 10 28zM263 135c39 0 81 -13 81 -69c0 -27 -18 -112 -76 -151c-22 -15 -86 -50 -188 -50c-39 0 -80 13 -80 69c0 27 17 112 75 151
c22 15 86 50 188 50z" fill="currentColor"/>
</g>
</a>
</g>
<g color="rgb(73.3333%, 18.4314%, 23.9216%)">
<g transform="translate(10.9186, 6.5000)">
<rect x="-0.0603" y="-6.5000" width="0.1207" height="2.2359" ry="0.0356" fill="currentColor"/>
</g>
</g>
<g color="rgb(23.5294%, 36.8627%, 76.8627%)">
<g transform="translate(9.6646, 6.5000)">
<rect x="-0.0603" y="-1.2359" width="0.1207" height="3.2359" ry="0.0356" fill="currentColor"/>
</g>
</g>
<g color="rgb(73.3333%, 18.4314%, 23.9216%)">
<a style="color:inherit;" xlink:href="textedit:///Users/hex/Desktop/svglily/39.ly:29:21:22">
<g transform="translate(14.2194, 6.0000)">
<path transform="scale(0.0040, -0.0040)" d="M315 66c0 23 -18 42 -42 42c-40 0 -206 -113 -234 -146c-7 -8 -10 -18 -10 -28c0 -23 18 -42 42 -42c40 0 206 113 234 146c7 8 10 18 10 28zM263 135c39 0 81 -13 81 -69c0 -27 -18 -112 -76 -151c-22 -15 -86 -50 -188 -50c-39 0 -80 13 -80 69c0 27 17 112 75 151
c22 15 86 50 188 50z" fill="currentColor"/>
</g>
</a>
</g>
<g color="rgb(23.5294%, 36.8627%, 76.8627%)">
<a style="color:inherit;" xlink:href="textedit:///Users/hex/Desktop/svglily/39.ly:29:60:61">
<g transform="translate(13.7520, 4.5000)">
<path transform="scale(0.0040, -0.0040)" d="M315 66c0 23 -18 42 -42 42c-40 0 -206 -113 -234 -146c-7 -8 -10 -18 -10 -28c0 -23 18 -42 42 -42c40 0 206 113 234 146c7 8 10 18 10 28zM263 135c39 0 81 -13 81 -69c0 -27 -18 -112 -76 -151c-22 -15 -86 -50 -188 -50c-39 0 -80 13 -80 69c0 27 17 112 75 151
c22 15 86 50 188 50z" fill="currentColor"/>
</g>
</a>
</g>
<g color="rgb(73.3333%, 18.4314%, 23.9216%)">
<g transform="translate(15.5337, 6.5000)">
<rect x="-0.0603" y="-3.6667" width="0.1207" height="2.9025" ry="0.0356" fill="currentColor"/>
</g>
</g>
<g color="rgb(23.5294%, 36.8627%, 76.8627%)">
<g transform="translate(13.8123, 6.5000)">
<rect x="-0.0603" y="-1.7359" width="0.1207" height="3.2359" ry="0.0356" fill="currentColor"/>
</g>
</g>
<g color="rgb(73.3333%, 18.4314%, 23.9216%)">
<a style="color:inherit;" xlink:href="textedit:///Users/hex/Desktop/svglily/39.ly:29:25:26">
<g transform="translate(18.1334, 5.5000)">
<path transform="scale(0.0040, -0.0040)" d="M315 66c0 23 -18 42 -42 42c-40 0 -206 -113 -234 -146c-7 -8 -10 -18 -10 -28c0 -23 18 -42 42 -42c40 0 206 113 234 146c7 8 10 18 10 28zM263 135c39 0 81 -13 81 -69c0 -27 -18 -112 -76 -151c-22 -15 -86 -50 -188 -50c-39 0 -80 13 -80 69c0 27 17 112 75 151
c22 15 86 50 188 50z" fill="currentColor"/>
</g>
</a>
</g>
<g color="rgb(23.5294%, 36.8627%, 76.8627%)">
<a style="color:inherit;" xlink:href="textedit:///Users/hex/Desktop/svglily/39.ly:29:64:65">
<g transform="translate(18.1334, 8.0000)">
<path transform="scale(0.0040, -0.0040)" d="M315 66c0 23 -18 42 -42 42c-40 0 -206 -113 -234 -146c-7 -8 -10 -18 -10 -28c0 -23 18 -42 42 -42c40 0 206 113 234 146c7 8 10 18 10 28zM263 135c39 0 81 -13 81 -69c0 -27 -18 -112 -76 -151c-22 -15 -86 -50 -188 -50c-39 0 -80 13 -80 69c0 27 17 112 75 151
c22 15 86 50 188 50z" fill="currentColor"/>
</g>
</a>
</g>
<g color="rgb(73.3333%, 18.4314%, 23.9216%)">
<g transform="translate(19.4477, 6.5000)">
<rect x="-0.0603" y="-4.0000" width="0.1207" height="2.7359" ry="0.0356" fill="currentColor"/>
</g>
</g>
<g color="rgb(23.5294%, 36.8627%, 76.8627%)">
<g transform="translate(18.1937, 6.5000)">
<rect x="-0.0603" y="1.7641" width="0.1207" height="2.5692" ry="0.0356" fill="currentColor"/>
</g>
</g>
<g color="rgb(23.5294%, 36.8627%, 76.8627%)">
<a style="color:inherit;" xlink:href="textedit:///Users/hex/Desktop/svglily/39.ly:29:67:68">
<g transform="translate(22.2811, 7.5000)">
<path transform="scale(0.0040, -0.0040)" d="M315 66c0 23 -18 42 -42 42c-40 0 -206 -113 -234 -146c-7 -8 -10 -18 -10 -28c0 -23 18 -42 42 -42c40 0 206 113 234 146c7 8 10 18 10 28zM263 135c39 0 81 -13 81 -69c0 -27 -18 -112 -76 -151c-22 -15 -86 -50 -188 -50c-39 0 -80 13 -80 69c0 27 17 112 75 151
c22 15 86 50 188 50z" fill="currentColor"/>
</g>
</a>
</g>
<g color="rgb(73.3333%, 18.4314%, 23.9216%)">
<g transform="translate(24.0627, 6.5000)">
<rect x="-0.0603" y="-1.0000" width="0.1207" height="3.2359" ry="0.0356" fill="currentColor"/>
</g>
</g>
<g color="rgb(23.5294%, 36.8627%, 76.8627%)">
<g transform="translate(22.3414, 6.5000)">
<rect x="-0.0603" y="1.2641" width="0.1207" height="2.7359" ry="0.0356" fill="currentColor"/>
</g>
</g>
<g color="rgb(73.3333%, 18.4314%, 23.9216%)">
<a style="color:inherit;" xlink:href="textedit:///Users/hex/Desktop/svglily/39.ly:29:32:33">
<g transform="translate(26.6624, 8.5000)">
<path transform="scale(0.0040, -0.0040)" d="M315 66c0 23 -18 42 -42 42c-40 0 -206 -113 -234 -146c-7 -8 -10 -18 -10 -28c0 -23 18 -42 42 -42c40 0 206 113 234 146c7 8 10 18 10 28zM263 135c39 0 81 -13 81 -69c0 -27 -18 -112 -76 -151c-22 -15 -86 -50 -188 -50c-39 0 -80 13 -80 69c0 27 17 112 75 151
c22 15 86 50 188 50z" fill="currentColor"/>
</g>
</a>
</g>
<g color="rgb(23.5294%, 36.8627%, 76.8627%)">
<a style="color:inherit;" xlink:href="textedit:///Users/hex/Desktop/svglily/39.ly:29:70:71">
<g transform="translate(26.6624, 11.0000)">
<path transform="scale(0.0040, -0.0040)" d="M315 66c0 23 -18 42 -42 42c-40 0 -206 -113 -234 -146c-7 -8 -10 -18 -10 -28c0 -23 18 -42 42 -42c40 0 206 113 234 146c7 8 10 18 10 28zM263 135c39 0 81 -13 81 -69c0 -27 -18 -112 -76 -151c-22 -15 -86 -50 -188 -50c-39 0 -80 13 -80 69c0 27 17 112 75 151
c22 15 86 50 188 50z" fill="currentColor"/>
</g>
</a>
</g>
<g color="rgb(73.3333%, 18.4314%, 23.9216%)">
<g transform="translate(27.9767, 6.5000)">
<rect x="-0.0603" y="-1.5000" width="0.1207" height="3.2359" ry="0.0356" fill="currentColor"/>
</g>
</g>
<g color="rgb(23.5294%, 36.8627%, 76.8627%)">
<g transform="translate(26.7228, 6.5000)">
<rect x="-0.0603" y="4.7641" width="0.1207" height="2.2359" ry="0.0356" fill="currentColor"/>
</g>
</g>
<g color="rgb(73.3333%, 18.4314%, 23.9216%)">
<a style="color:inherit;" xlink:href="textedit:///Users/hex/Desktop/svglily/39.ly:29:35:36">
<g transform="translate(31.2775, 12.0000)">
<path transform="scale(0.0040, -0.0040)" d="M315 66c0 23 -18 42 -42 42c-40 0 -206 -113 -234 -146c-7 -8 -10 -18 -10 -28c0 -23 18 -42 42 -42c40 0 206 113 234 146c7 8 10 18 10 28zM263 135c39 0 81 -13 81 -69c0 -27 -18 -112 -76 -151c-22 -15 -86 -50 -188 -50c-39 0 -80 13 -80 69c0 27 17 112 75 151
c22 15 86 50 188 50z" fill="currentColor"/>
</g>
</a>
</g>
<g color="rgb(23.5294%, 36.8627%, 76.8627%)">
<a style="color:inherit;" xlink:href="textedit:///Users/hex/Desktop/svglily/39.ly:29:72:73">
<g transform="translate(30.8101, 10.5000)">
<path transform="scale(0.0040, -0.0040)" d="M315 66c0 23 -18 42 -42 42c-40 0 -206 -113 -234 -146c-7 -8 -10 -18 -10 -28c0 -23 18 -42 42 -42c40 0 206 113 234 146c7 8 10 18 10 28zM263 135c39 0 81 -13 81 -69c0 -27 -18 -112 -76 -151c-22 -15 -86 -50 -188 -50c-39 0 -80 13 -80 69c0 27 17 112 75 151
c22 15 86 50 188 50z" fill="currentColor"/>
</g>
</a>
</g>
<g color="rgb(73.3333%, 18.4314%, 23.9216%)">
<g transform="translate(32.5918, 6.5000)">
<rect x="-0.0603" y="-0.0000" width="0.1207" height="5.2359" ry="0.0356" fill="currentColor"/>
</g>
</g>
<g color="rgb(23.5294%, 36.8627%, 76.8627%)">
<g transform="translate(30.8705, 6.5000)">
<rect x="-0.0603" y="4.2641" width="0.1207" height="2.2359" ry="0.0356" fill="currentColor"/>
</g>
</g>
</svg>
