<svg xmlns="http://www.w3.org/2000/svg" xmlns:xlink="http://www.w3.org/1999/xlink" version="1.2" width="54.42mm" height="15.78mm" viewBox="7.6043 -0.0000 27.5897 8.0000">
<style type="text/css">
<![CDATA[
tspan { white-space: pre; }
]]>
</style>
<g transform="translate(7.6043, 6.0000)">
<line stroke-linejoin="round" stroke-linecap="round" stroke-width="0.0928" stroke="currentColor" x1="0.0464" y1="0" x2="27.5897" y2="0"/>
</g>
<g transform="translate(7.6043, 5.0000)">
<line stroke-linejoin="round" stroke-linecap="round" stroke-width="0.0928" stroke="currentColor" x1="0.0464" y1="0" x2="27.5897" y2="0"/>
</g>
<g transform="translate(7.6043, 4.0000)">
<line stroke-linejoin="round" stroke-linecap="round" stroke-width="0.0928" stroke="currentColor" x1="0.0464" y1="0" x2="27.5897" y2="0"/>
</g>
<g transform="translate(7.6043, 3.0000)">
<line stroke-linejoin="round" stroke-linecap="round" stroke-width="0.0928" stroke="currentColor" x1="0.0464" y1="0" x2="27.5897" y2="0"/>
</g>
<g transform="translate(7.6043, 2.0000)">
<line stroke-linejoin="round" stroke-linecap="round" stroke-width="0.0928" stroke="currentColor" x1="0.0464" y1="0" x2="27.5897" y2="0"/>
</g>
<g color="rgb(73.3333%, 18.4314%, 23.9216%)">
<a style="color:inherit;" xlink:href="textedit:///Users/hex/Desktop/svglily/61.ly:29:28:29">
<g transform="translate(22.4224, 3.5000)">
<path transform="scale(0.0040, -0.0040)" d="M315 66c0 23 -18 42 -42 42c-40 0 -206 -113 -234 -146c-7 -8 -10 -18 -10 -28c0 -23 18 -42 42 -42c40 0 206 113 234 146c7 8 10 18 10 28zM263 135c39 0 81 -13 81 -69c0 -27 -18 -112 -76 -151c-22 -15 -86 -50 -188 -50c-39 0 -80 13 -80 69c0 27 17 112 75 151
c22 15 86 50 188 50z" fill="currentColor"/>
</g>
</a>
</g>
<g color="rgb(73.3333%, 18.4314%, 23.9216%)">
<a style="color:inherit;" xlink:href="textedit:///Users/hex/Desktop/svglily/61.ly:29:15:16">
<g transform="translate(9.6043, 3.0000)">
<path transform="scale(0.0040, -0.0040)" d="M315 66c0 23 -18 42 -42 42c-40 0 -206 -113 -234 -146c-7 -8 -10 -18 -10 -28c0 -23 18 -42 42 -42c40 0 206 113 234 146c7 8 10 18 10 28zM263 135c39 0 81 -13 81 -69c0 -27 -18 -112 -76 -151c-22 -15 -86 -50 -188 -50c-39 0 -80 13 -80 69c0 27 17 112 75 151
c22 15 86 50 188 50z" fill="currentColor"/>
</g>
</a>
</g>
<g color="rgb(23.5294%, 36.8627%, 76.8627%)">
<a style="color:inherit;" xlink:href="textedit:///Users/hex/Desktop/svglily/61.ly:29:58:59">
<g transform="translate(9.6043, 5.0000)">
<path transform="scale(0.0040, -0.0040)" d="M315 66c0 23 -18 42 -42 42c-40 0 -206 -113 -234 -146c-7 -8 -10 -18 -10 -28c0 -23 18 -42 42 -42c40 0 206 113 234 146c7 8 10 18 10 28zM263 135c39 0 81 -13 81 -69c0 -27 -18 -112 -76 -151c-22 -15 -86 -50 -188 -50c-39 0 -80 13 -80 69c0 27 17 112 75 151
c22 15 86 50 188 50z" fill="currentColor"/>
</g>
</a>
</g>
<g color="rgb(73.3333%, 18.4314%, 23.9216%)">
<g transform="translate(10.9186, 4.0000)">
<rect x="-0.0603" y="-4.0000" width="0.1207" height="2.7359" ry="0.0356" fill="currentColor"/>
</g>
</g>
<g color="rgb(23.5294%, 36.8627%, 76.8627%)">
<g transform="translate(9.6646, 4.0000)">
<rect x="-0.0603" y="1.2641" width="0.1207" height="2.7359" ry="0.0356" fill="currentColor"/>
</g>
</g>
<g color="rgb(73.3333%, 18.4314%, 23.9216%)">
<a style="color:inherit;" xlink:href="textedit:///Users/hex/Desktop/svglily/61.ly:29:20:21">
<g transform="translate(13.8770, 3.5000)">
<path transform="scale(0.0040, -0.0040)" d="M315 66c0 23 -18 42 -42 42c-40 0 -206 -113 -234 -146c-7 -8 -10 -18 -10 -28c0 -23 18 -42 42 -42c40 0 206 113 234 146c7 8 10 18 10 28zM263 135c39 0 81 -13 81 -69c0 -27 -18 -112 -76 -151c-22 -15 -86 -50 -188 -50c-39 0 -80 13 -80 69c0 27 17 112 75 151
c22 15 86 50 188 50z" fill="currentColor"/>
</g>
</a>
</g>
<g color="rgb(23.5294%, 36.8627%, 76.8627%)">
<a style="color:inherit;" xlink:href="textedit:///Users/hex/Desktop/svglily/61.ly:29:62:63">
<g transform="translate(13.8770, 4.5000)">
<path transform="scale(0.0040, -0.0040)" d="M315 66c0 23 -18 42 -42 42c-40 0 -206 -113 -234 -146c-7 -8 -10 -18 -10 -28c0 -23 18 -42 42 -42c40 0 206 113 234 146c7 8 10 18 10 28zM263 135c39 0 81 -13 81 -69c0 -27 -18 -112 -76 -151c-22 -15 -86 -50 -188 -50c-39 0 -80 13 -80 69c0 27 17 112 75 151
c22 15 86 50 188 50z" fill="currentColor"/>
</g>
</a>
</g>
<g color="rgb(73.3333%, 18.4314%, 23.9216%)">
<g transform="translate(15.1913, 4.0000)">
<rect x="-0.0603" y="-3.6667" width="0.1207" height="2.9025" ry="0.0356" fill="currentColor"/>
</g>
</g>
<g color="rgb(23.5294%, 36.8627%, 76.8627%)">
<g transform="translate(13.9373, 4.0000)">
<rect x="-0.0603" y="0.7641" width="0.1207" height="2.9025" ry="0.0356" fill="currentColor"/>
</g>
</g>
<g color="rgb(73.3333%, 18.4314%, 23.9216%)">
<a style="color:inherit;" xlink:href="textedit:///Users/hex/Desktop/svglily/61.ly:29:24:25">
<g transform="translate(18.1497, 3.0000)">
<path transform="scale(0.0040, -0.0040)" d="M315 66c0 23 -18 42 -42 42c-40 0 -206 -113 -234 -146c-7 -8 -10 -18 -10 -28c0 -23 18 -42 42 -42c40 0 206 113 234 146c7 8 10 18 10 28zM263 135c39 0 81 -13 81 -69c0 -27 -18 -112 -76 -151c-22 -15 -86 -50 -188 -50c-39 0 -80 13 -80 69c0 27 17 112 75 151
c22 15 86 50 188 50z" fill="currentColor"/>
</g>
</a>
</g>
<g color="rgb(23.5294%, 36.8627%, 76.8627%)">
<a style="color:inherit;" xlink:href="textedit:///Users/hex/Desktop/svglily/61.ly:29:65:66">
<g transform="translate(18.1497, 5.0000)">
<path transform="scale(0.0040, -0.0040)" d="M315 66c0 23 -18 42 -42 42c-40 0 -206 -113 -234 -146c-7 -8 -10 -18 -10 -28c0 -23 18 -42 42 -42c40 0 206 113 234 146c7 8 10 18 10 28zM263 135c39 0 81 -13 81 -69c0 -27 -18 -112 -76 -151c-22 -15 -86 -50 -188 -50c-39 0 -80 13 -80 69c0 27 17 112 75 151
c22 15 86 50 188 50z" fill="currentColor"/>
</g>
</a>
</g>
<g color="rgb(73.3333%, 18.4314%, 23.9216%)">
<g transform="translate(19.4640, 4.0000)">
<rect x="-0.0603" y="-4.0000" width="0.1207" height="2.7359" ry="0.0356" fill="currentColor"/>
</g>
</g>
<g color="rgb(23.5294%, 36.8627%, 76.8627%)">
<g transform="translate(18.2100, 4.0000)">
<rect x="-0.0603" y="1.2641" width="0.1207" height="2.7359" ry="0.0356" fill="currentColor"/>
</g>
</g>
<g color="rgb(23.5294%, 36.8627%, 76.8627%)">
<a style="color:inherit;" xlink:href="textedit:///Users/hex/Desktop/svglily/61.ly:29:68:69">
<g transform="translate(22.4224, 4.5000)">
<path transform="scale(0.0040, -0.0040)" d="M315 66c0 23 -18 42 -42 42c-40 0 -206 -113 -234 -146c-7 -8 -10 -18 -10 -28c0 -23 18 -42 42 -42c40 0 206 113 234 146c7 8 10 18 10 28zM263 135c39 0 81 -13 81 -69c0 -27 -18 -112 -76 -151c-22 -15 -86 -50 -188 -50c-39 0 -80 13 -80 69c0 27 17 112 75 151
c22 15 86 50 188 50z" fill="currentColor"/>
</g>
</a>
</g>
<g color="rgb(73.3333%, 18.4314%, 23.9216%)">
<g transform="translate(23.7367, 4.0000)">
<rect x="-0.0603" y="-3.6667" width="0.1207" height="2.9025" ry="0.0356" fill="currentColor"/>
</g>
</g>
<g color="rgb(23.5294%, 36.8627%, 76.8627%)">
<g transform="translate(22.4827, 4.0000)">
<rect x="-0.0603" y="0.7641" width="0.1207" height="2.9025" ry="0.0356" fill="currentColor"/>
</g>
</g>
<g color="rgb(73.3333%, 18.4314%, 23.9216%)">
<a style="color:inherit;" xlink:href="textedit:///Users/hex/Desktop/svglily/61.ly:29:32:33">
<g transform="translate(26.6950, 3.0000)">
<path transform="scale(0.0040, -0.0040)" d="M315 66c0 23 -18 42 -42 42c-40 0 -206 -113 -234 -146c-7 -8 -10 -18 -10 -28c0 -23 18 -42 42 -42c40 0 206 113 234 146c7 8 10 18 10 28zM263 135c39 0 81 -13 81 -69c0 -27 -18 -112 -76 -151c-22 -15 -86 -50 -188 -50c-39 0 -80 13 -80 69c0 27 17 112 75 151
c22 15 86 50 188 50z" fill="currentColor"/>
</g>
</a>
</g>
<g color="rgb(23.5294%, 36.8627%, 76.8627%)">
<a style="color:inherit;" xlink:href="textedit:///Users/hex/Desktop/svglily/61.ly:29:71:72">
<g transform="translate(26.6950, 5.0000)">
<path transform="scale(0.0040, -0.0040)" d="M315 66c0 23 -18 42 -42 42c-40 0 -206 -113 -234 -146c-7 -8 -10 -18 -10 -28c0 -23 18 -42 42 -42c40 0 206 113 234 146c7 8 10 18 10 28zM263 135c39 0 81 -13 81 -69c0 -27 -18 -112 -76 -151c-22 -15 -86 -50 -188 -50c-39 0 -80 13 -80 69c0 27 17 112 75 151
c22 15 86 50 188 50z" fill="currentColor"/>
</g>
</a>
</g>
<g color="rgb(73.3333%, 18.4314%, 23.9216%)">
<g transform="translate(28.0094, 4.0000)">
<rect x="-0.0603" y="-4.0000" width="0.1207" height="2.7359" ry="0.0356" fill="currentColor"/>
</g>
</g>
<g color="rgb(23.5294%, 36.8627%, 76.8627%)">
<g transform="translate(26.7554, 4.0000)">
<rect x="-0.0603" y="1.2641" width="0.1207" height="2.7359" ry="0.0356" fill="currentColor"/>
</g>
</g>
<g color="rgb(73.3333%, 18.4314%, 23.9216%)">
<a style="color:inherit;" xlink:href="textedit:///Users/hex/Desktop/svglily/61.ly:29:36:37">
<g transform="translate(30.9677, 3.5000)">
<path transform="scale(0.0040, -0.0040)" d="M315 66c0 23 -18 42 -42 42c-40 0 -206 -113 -234 -146c-7 -8 -10 -18 -10 -28c0 -23 18 -42 42 -42c40 0 206 113 234 146c7 8 10 18 10 28zM263 135c39 0 81 -13 81 -69c0 -27 -18 -112 -76 -151c-22 -15 -86 -50 -188 -50c-39 0 -80 13 -80 69c0 27 17 112 75 151
c22 15 86 50 188 50z" fill="currentColor"/>
</g>
</a>
</g>
<g color="rgb(23.5294%, 36.8627%, 76.8627%)">
<a style="color:inherit;" xlink:href="textedit:///Users/hex/Desktop/svglily/61.ly:29:74:75">
<g transform="translate(30.9677, 4.5000)">
<path transform="scale(0.0040, -0.0040)" d="M315 66c0 23 -18 42 -42 42c-40 0 -206 -113 -234 -146c-7 -8 -10 -18 -10 -28c0 -23 18 -42 42 -42c40 0 206 113 234 146c7 8 10 18 10 28zM263 135c39 0 81 -13 81 -69c0 -27 -18 -112 -76 -151c-22 -15 -86 -50 -188 -50c-39 0 -80 13 -80 69c0 27 17 112 75 151
c22 15 86 50 188 50z" fill="currentColor"/>
</g>
</a>
</g>
<g color="rgb(73.3333%, 18.4314%, 23.9216%)">
<g transform="translate(32.2820, 4.0000)">
<rect x="-0.0603" y="-3.6667" width="0.1207" height="2.9025" ry="0.0356" fill="currentColor"/>
</g>
</g>
<g color="rgb(23.5294%, 36.8627%, 76.8627%)">
<g transform="translate(31.0281, 4.0000)">
<rect x="-0.0603" y="0.7641" width="0.1207" height="2.9025" ry="0.0356" fill="currentColor"/>
</g>
</g>
</svg>
